<svg viewBox="0 0 32 32" xmlns="http://www.w3.org/2000/svg">
  <defs>
    <linearGradient id="fGold" x1="0%" y1="0%" x2="100%" y2="100%">
      <stop offset="0%" stop-color="#FFE55C"/>
      <stop offset="50%" stop-color="#D4AF37"/>
      <stop offset="100%" stop-color="#B8860B"/>
    </linearGradient>
  </defs>
  
  <!-- Coin Ring -->
  <circle cx="16" cy="16" r="14" fill="none" stroke="url(#fGold)" stroke-width="2"/>
  
  <!-- Simplified G -->
  <path d="M16 5C10 5 5 10 5 16s5 11 11 11c4.3 0 8.1-2.5 9.9-6.1l-4-2.3c-1.2 2.2-3.5 3.7-6 3.7-3.9 0-7-3.2-7-7s3.1-7 7-7c2.4 0 4.5 1.2 5.8 3.1l4-2.5C23.5 6.5 20 5 16 5z" 
        fill="url(#fGold)"/>
  <rect x="15" y="13" width="10" height="5" rx="1" fill="url(#fGold)"/>
  
</svg>