<svg viewBox="0 0 100 100" xmlns="http://www.w3.org/2000/svg">
  <defs>
    <!-- Luxury Gold Gradient -->
    <linearGradient id="goldGradient" x1="0%" y1="0%" x2="100%" y2="100%">
      <stop offset="0%" stop-color="#F4E4BA"/>
      <stop offset="25%" stop-color="#D4AF37"/>
      <stop offset="50%" stop-color="#FFD700"/>
      <stop offset="75%" stop-color="#D4AF37"/>
      <stop offset="100%" stop-color="#B8860B"/>
    </linearGradient>
    
    <!-- Metallic Gold Shine -->
    <linearGradient id="goldShine" x1="0%" y1="0%" x2="0%" y2="100%">
      <stop offset="0%" stop-color="#FFF8DC"/>
      <stop offset="30%" stop-color="#FFD700"/>
      <stop offset="70%" stop-color="#D4AF37"/>
      <stop offset="100%" stop-color="#996515"/>
    </linearGradient>
    
    <!-- Inner Shadow for Depth -->
    <radialGradient id="coinDepth" cx="30%" cy="30%" r="70%">
      <stop offset="0%" stop-color="#FFE55C"/>
      <stop offset="100%" stop-color="#B8860B"/>
    </radialGradient>
    
    <!-- Glow Effect -->
    <filter id="goldGlow" x="-20%" y="-20%" width="140%" height="140%">
      <feGaussianBlur stdDeviation="2" result="blur"/>
      <feComposite in="SourceGraphic" in2="blur" operator="over"/>
    </filter>
  </defs>
  
  <!-- Outer Coin Ring -->
  <circle cx="50" cy="50" r="47" fill="none" stroke="url(#goldGradient)" stroke-width="3"/>
  <circle cx="50" cy="50" r="44" fill="none" stroke="url(#goldShine)" stroke-width="1.5" opacity="0.8"/>
  
  <!-- Inner Coin Surface -->
  <circle cx="50" cy="50" r="40" fill="url(#coinDepth)" opacity="0.15"/>
  
  <!-- Stylized G Letter - Premium Crypto Style -->
  <path d="M50 16C30.1 16 14 32.1 14 52s16.1 36 36 36c14 0 26.3-8 32.2-19.7l-13-7.5c-3.7 7-11 11.7-19.2 11.7-12.1 0-22-9.9-22-22s9.9-22 22-22c7.6 0 14.3 3.9 18.2 9.8l12.8-8C75.3 21.8 63.5 16 50 16z" 
        fill="url(#goldGradient)" filter="url(#goldGlow)"/>
  
  <!-- G Horizontal Bar -->
  <rect x="48" y="45" width="30" height="13" rx="2.5" fill="url(#goldGradient)"/>
  
  <!-- Luxury Accent Lines -->
  <path d="M50 8 L50 12" stroke="url(#goldGradient)" stroke-width="2" stroke-linecap="round" opacity="0.6"/>
  <path d="M50 88 L50 92" stroke="url(#goldGradient)" stroke-width="2" stroke-linecap="round" opacity="0.6"/>
  <path d="M8 50 L12 50" stroke="url(#goldGradient)" stroke-width="2" stroke-linecap="round" opacity="0.6"/>
  <path d="M88 50 L92 50" stroke="url(#goldGradient)" stroke-width="2" stroke-linecap="round" opacity="0.6"/>
  
</svg>